<svg xmlns="http://www.w3.org/2000/svg" xmlns:xlink="http://www.w3.org/1999/xlink" width="160" height="35" viewBox="0 0 160 35">
  <defs>
    <linearGradient id="linear-gradient" x1="0.852" y1="0.898" x2="0" y2="0.25" gradientUnits="objectBoundingBox">
      <stop offset="0" stop-color="#ff519d"/>
      <stop offset="1" stop-color="#ffcc01"/>
    </linearGradient>
  </defs>
  <g id="그룹_3" data-name="그룹 3" transform="translate(-51 -12)">
    <path id="패스_2" data-name="패스 2" d="M4.558-12.95v9.622h-2.9V-17.8H4.94l4.62,7.388L14.18-17.8h3.284V-3.328h-2.9V-12.95L10.705-6.688H8.414ZM27.028-5.7a4.552,4.552,0,0,0,2.358-.592,3.885,3.885,0,0,0,1.537-1.69,5.849,5.849,0,0,0,.535-2.587,5.849,5.849,0,0,0-.535-2.587,3.885,3.885,0,0,0-1.537-1.69,4.552,4.552,0,0,0-2.358-.592,4.552,4.552,0,0,0-2.358.592,3.885,3.885,0,0,0-1.537,1.69,5.849,5.849,0,0,0-.535,2.587,5.849,5.849,0,0,0,.535,2.587,3.885,3.885,0,0,0,1.537,1.69A4.552,4.552,0,0,0,27.028-5.7Zm-.019-12.256a7.6,7.6,0,0,1,3.809.945,6.711,6.711,0,0,1,2.606,2.625,7.714,7.714,0,0,1,.935,3.818,7.714,7.714,0,0,1-.935,3.818,6.711,6.711,0,0,1-2.606,2.625,7.561,7.561,0,0,1-3.79.945,7.561,7.561,0,0,1-3.79-.945,6.711,6.711,0,0,1-2.606-2.625,7.714,7.714,0,0,1-.935-3.818,7.714,7.714,0,0,1,.935-3.818,6.729,6.729,0,0,1,2.6-2.625A7.508,7.508,0,0,1,27.009-17.952Zm14.127,12.1a4.527,4.527,0,0,0,2.32-.573,3.834,3.834,0,0,0,1.518-1.642,5.526,5.526,0,0,0,.535-2.5,5.526,5.526,0,0,0-.535-2.5,3.834,3.834,0,0,0-1.518-1.642,4.527,4.527,0,0,0-2.32-.573l-1.718.019v9.393ZM41.193-17.8a7.546,7.546,0,0,1,3.742.916,6.49,6.49,0,0,1,2.558,2.568,7.6,7.6,0,0,1,.916,3.751,7.6,7.6,0,0,1-.916,3.751,6.49,6.49,0,0,1-2.558,2.568,7.546,7.546,0,0,1-3.742.916H36.516V-17.8ZM57.344-5.7A4.552,4.552,0,0,0,59.7-6.288a3.885,3.885,0,0,0,1.537-1.69,5.849,5.849,0,0,0,.535-2.587,5.849,5.849,0,0,0-.535-2.587A3.885,3.885,0,0,0,59.7-14.84a4.552,4.552,0,0,0-2.358-.592,4.552,4.552,0,0,0-2.358.592,3.885,3.885,0,0,0-1.537,1.69,5.848,5.848,0,0,0-.535,2.587,5.848,5.848,0,0,0,.535,2.587,3.885,3.885,0,0,0,1.537,1.69A4.552,4.552,0,0,0,57.344-5.7Zm-.019-12.256a7.6,7.6,0,0,1,3.809.945,6.711,6.711,0,0,1,2.606,2.625,7.714,7.714,0,0,1,.935,3.818,7.714,7.714,0,0,1-.935,3.818,6.711,6.711,0,0,1-2.606,2.625,7.561,7.561,0,0,1-3.79.945,7.561,7.561,0,0,1-3.79-.945,6.711,6.711,0,0,1-2.606-2.625,7.714,7.714,0,0,1-.935-3.818,7.714,7.714,0,0,1,.935-3.818,6.729,6.729,0,0,1,2.6-2.625A7.508,7.508,0,0,1,57.325-17.952ZM73.647-5.7a4.552,4.552,0,0,0,2.358-.592,3.885,3.885,0,0,0,1.537-1.69,5.848,5.848,0,0,0,.535-2.587,5.848,5.848,0,0,0-.535-2.587,3.885,3.885,0,0,0-1.537-1.69,4.552,4.552,0,0,0-2.358-.592,4.552,4.552,0,0,0-2.358.592,3.885,3.885,0,0,0-1.537,1.69,5.848,5.848,0,0,0-.535,2.587,5.848,5.848,0,0,0,.535,2.587,3.885,3.885,0,0,0,1.537,1.69A4.552,4.552,0,0,0,73.647-5.7Zm-.019-12.256a7.6,7.6,0,0,1,3.809.945,6.711,6.711,0,0,1,2.606,2.625,7.714,7.714,0,0,1,.935,3.818,7.714,7.714,0,0,1-.935,3.818,6.711,6.711,0,0,1-2.606,2.625,7.561,7.561,0,0,1-3.79.945,7.561,7.561,0,0,1-3.79-.945,6.711,6.711,0,0,1-2.606-2.625,7.714,7.714,0,0,1-.935-3.818,7.714,7.714,0,0,1,.935-3.818,6.729,6.729,0,0,1,2.6-2.625A7.508,7.508,0,0,1,73.628-17.952Zm15.2,7.407a2.1,2.1,0,0,0,1.613-.668,2.451,2.451,0,0,0,.62-1.737,2.4,2.4,0,0,0-.62-1.7,2.1,2.1,0,0,0-1.613-.668H86.018v4.773Zm.1-7.255a5.283,5.283,0,0,1,2.606.63,4.658,4.658,0,0,1,1.785,1.728,4.8,4.8,0,0,1,.649,2.491,4.927,4.927,0,0,1-.649,2.539,4.569,4.569,0,0,1-1.785,1.728,5.348,5.348,0,0,1-2.606.62h-2.9v4.735h-2.9V-17.8Zm16.437,2.482H98.389v3.3h5.956v2.482H98.389V-5.81h6.968v2.482h-9.87V-17.8h9.87Zm12.027,0H113.6V-3.328h-2.9V-15.317h-3.856V-17.8h10.538Z" transform="translate(93.616 40.331)"/>
    <g id="그룹_1" data-name="그룹 1" transform="translate(51 12)">
      <circle id="타원_1" data-name="타원 1" cx="17.5" cy="17.5" r="17.5" fill="url(#linear-gradient)"/>
      <path id="패스_1" data-name="패스 1" d="M5.128-14.525V-3.7H1.863V-19.98H5.557l5.2,8.312,5.2-8.312h3.694V-3.7H16.382V-14.525L12.043-7.48H9.466Z" transform="translate(6.778 29.541)" fill="#fff"/>
    </g>
  </g>
</svg>
